<svg width="10" height="6" viewBox="0 0 10 6" fill="none" xmlns="http://www.w3.org/2000/svg">
<path d="M9.14795 4.10203L5.39795 0.352033C5.34569 0.299593 5.28359 0.257986 5.21522 0.229595C5.14685 0.201204 5.07354 0.186589 4.99951 0.186589C4.92548 0.186589 4.85217 0.201204 4.7838 0.229595C4.71543 0.257986 4.65333 0.299593 4.60107 0.352033L0.851073 4.10203C0.745401 4.20771 0.686035 4.35103 0.686035 4.50047C0.686035 4.64991 0.745401 4.79324 0.851073 4.89891C0.956746 5.00458 1.10007 5.06395 1.24951 5.06395C1.39895 5.06395 1.54228 5.00458 1.64795 4.89891L4.99998 1.54688L8.35201 4.89938C8.45768 5.00505 8.601 5.06441 8.75045 5.06441C8.89989 5.06441 9.04321 5.00505 9.14889 4.89938C9.25456 4.7937 9.31392 4.65038 9.31392 4.50094C9.31392 4.3515 9.25456 4.20817 9.14889 4.1025L9.14795 4.10203Z" fill="#474747"/>
</svg>
