<svg width="12" height="14" viewBox="0 0 12 14" fill="none" xmlns="http://www.w3.org/2000/svg">
<path d="M11.3538 4.14625L7.85375 0.64625C7.80728 0.599833 7.75212 0.563026 7.69143 0.537932C7.63073 0.512838 7.56568 0.499949 7.5 0.5H1.5C1.23478 0.5 0.98043 0.605357 0.792893 0.792893C0.605357 0.98043 0.5 1.23478 0.5 1.5V12.5C0.5 12.7652 0.605357 13.0196 0.792893 13.2071C0.98043 13.3946 1.23478 13.5 1.5 13.5H10.5C10.7652 13.5 11.0196 13.3946 11.2071 13.2071C11.3946 13.0196 11.5 12.7652 11.5 12.5V4.5C11.5001 4.43432 11.4872 4.36927 11.4621 4.30858C11.437 4.24788 11.4002 4.19272 11.3538 4.14625ZM8 2.20688L9.79313 4H8V2.20688ZM10.5 12.5H1.5V1.5H7V4.5C7 4.63261 7.05268 4.75979 7.14645 4.85355C7.24021 4.94732 7.36739 5 7.5 5H10.5V12.5ZM8 8.5C8 8.63261 7.94732 8.75979 7.85355 8.85355C7.75979 8.94732 7.63261 9 7.5 9H6.5V10C6.5 10.1326 6.44732 10.2598 6.35355 10.3536C6.25979 10.4473 6.13261 10.5 6 10.5C5.86739 10.5 5.74021 10.4473 5.64645 10.3536C5.55268 10.2598 5.5 10.1326 5.5 10V9H4.5C4.36739 9 4.24021 8.94732 4.14645 8.85355C4.05268 8.75979 4 8.63261 4 8.5C4 8.36739 4.05268 8.24021 4.14645 8.14645C4.24021 8.05268 4.36739 8 4.5 8H5.5V7C5.5 6.86739 5.55268 6.74021 5.64645 6.64645C5.74021 6.55268 5.86739 6.5 6 6.5C6.13261 6.5 6.25979 6.55268 6.35355 6.64645C6.44732 6.74021 6.5 6.86739 6.5 7V8H7.5C7.63261 8 7.75979 8.05268 7.85355 8.14645C7.94732 8.24021 8 8.36739 8 8.5Z" fill="black"/>
</svg>
