<svg width="16" height="13" viewBox="0 0 16 13" fill="none" xmlns="http://www.w3.org/2000/svg">
<path d="M15 12H14V5.00001C14 4.73479 13.8946 4.48044 13.7071 4.2929C13.5196 4.10537 13.2652 4.00001 13 4.00001H9V1.00001C9.00012 0.818924 8.95106 0.641205 8.85807 0.485822C8.76507 0.330438 8.63163 0.203223 8.47199 0.117753C8.31234 0.0322834 8.13248 -0.00823215 7.95161 0.000530925C7.77073 0.009294 7.59564 0.0670068 7.445 0.167509L2.445 3.50001C2.30784 3.59152 2.19543 3.71553 2.11779 3.861C2.04015 4.00646 1.99969 4.16887 2 4.33376V12H1C0.867392 12 0.740215 12.0527 0.646447 12.1465C0.552678 12.2402 0.5 12.3674 0.5 12.5C0.5 12.6326 0.552678 12.7598 0.646447 12.8536C0.740215 12.9473 0.867392 13 1 13H15C15.1326 13 15.2598 12.9473 15.3536 12.8536C15.4473 12.7598 15.5 12.6326 15.5 12.5C15.5 12.3674 15.4473 12.2402 15.3536 12.1465C15.2598 12.0527 15.1326 12 15 12ZM13 5.00001V12H9V5.00001H13ZM3 4.33376L8 1.00001V12H3V4.33376ZM7 6.00001V7.00001C7 7.13262 6.94732 7.2598 6.85355 7.35356C6.75979 7.44733 6.63261 7.50001 6.5 7.50001C6.36739 7.50001 6.24021 7.44733 6.14645 7.35356C6.05268 7.2598 6 7.13262 6 7.00001V6.00001C6 5.8674 6.05268 5.74022 6.14645 5.64646C6.24021 5.55269 6.36739 5.50001 6.5 5.50001C6.63261 5.50001 6.75979 5.55269 6.85355 5.64646C6.94732 5.74022 7 5.8674 7 6.00001ZM5 6.00001V7.00001C5 7.13262 4.94732 7.2598 4.85355 7.35356C4.75979 7.44733 4.63261 7.50001 4.5 7.50001C4.36739 7.50001 4.24021 7.44733 4.14645 7.35356C4.05268 7.2598 4 7.13262 4 7.00001V6.00001C4 5.8674 4.05268 5.74022 4.14645 5.64646C4.24021 5.55269 4.36739 5.50001 4.5 5.50001C4.63261 5.50001 4.75979 5.55269 4.85355 5.64646C4.94732 5.74022 5 5.8674 5 6.00001ZM5 9.50001V10.5C5 10.6326 4.94732 10.7598 4.85355 10.8536C4.75979 10.9473 4.63261 11 4.5 11C4.36739 11 4.24021 10.9473 4.14645 10.8536C4.05268 10.7598 4 10.6326 4 10.5V9.50001C4 9.3674 4.05268 9.24022 4.14645 9.14646C4.24021 9.05269 4.36739 9.00001 4.5 9.00001C4.63261 9.00001 4.75979 9.05269 4.85355 9.14646C4.94732 9.24022 5 9.3674 5 9.50001ZM7 9.50001V10.5C7 10.6326 6.94732 10.7598 6.85355 10.8536C6.75979 10.9473 6.63261 11 6.5 11C6.36739 11 6.24021 10.9473 6.14645 10.8536C6.05268 10.7598 6 10.6326 6 10.5V9.50001C6 9.3674 6.05268 9.24022 6.14645 9.14646C6.24021 9.05269 6.36739 9.00001 6.5 9.00001C6.63261 9.00001 6.75979 9.05269 6.85355 9.14646C6.94732 9.24022 7 9.3674 7 9.50001Z" fill="black"/>
</svg>
