<svg width="7" height="12" viewBox="0 0 7 12" fill="none" xmlns="http://www.w3.org/2000/svg">
<path d="M0.646345 10.6463C0.59989 10.6927 0.56304 10.7479 0.537899 10.8086C0.512757 10.8693 0.499816 10.9343 0.499816 11C0.499816 11.0657 0.512757 11.1308 0.537899 11.1915C0.56304 11.2521 0.59989 11.3073 0.646345 11.3538C0.6928 11.4002 0.74795 11.4371 0.808647 11.4622C0.869343 11.4873 0.934397 11.5003 1.00009 11.5003C1.06579 11.5003 1.13085 11.4873 1.19154 11.4622C1.25224 11.4371 1.30739 11.4002 1.35385 11.3538L6.35385 6.35375C6.40033 6.30732 6.43721 6.25217 6.46237 6.19147C6.48754 6.13077 6.50049 6.06571 6.50049 6C6.50049 5.9343 6.48754 5.86923 6.46237 5.80853C6.43721 5.74783 6.40033 5.69269 6.35385 5.64625L1.35385 0.646253C1.26003 0.552433 1.13278 0.499725 1.00009 0.499725C0.867413 0.499725 0.740165 0.552433 0.646345 0.646253C0.552525 0.740074 0.499816 0.867321 0.499816 1C0.499816 1.13269 0.552525 1.25993 0.646345 1.35375L5.29322 6L0.646345 10.6463Z" fill="black"/>
</svg>
