<svg width="24" height="24" viewBox="0 0 24 24" fill="none" xmlns="http://www.w3.org/2000/svg">
<path d="M12.0273 0H11.9727C5.36035 0 0 5.36035 0 11.9727V12.0273C0 18.6397 5.36035 24 11.9727 24H12.0273C18.6397 24 24 18.6397 24 12.0273V11.9727C24 5.36035 18.6397 0 12.0273 0Z" fill="#263655"/>
<path d="M15.7139 4.88232H8.2876C6.23596 4.88232 4.56689 6.55138 4.56689 8.60303V15.397C4.56689 17.4486 6.23596 19.1177 8.2876 19.1177H15.7139C17.7655 19.1177 19.4346 17.4486 19.4346 15.397V8.60303C19.4346 6.55138 17.7655 4.88232 15.7139 4.88232ZM5.87944 8.60303C5.87944 7.27535 6.95992 6.19487 8.2876 6.19487H15.7139C17.0415 6.19487 18.122 7.27535 18.122 8.60303V15.397C18.122 16.7247 17.0415 17.8051 15.7139 17.8051H8.2876C6.95992 17.8051 5.87944 16.7247 5.87944 15.397V8.60303Z" fill="white"/>
<path d="M12.0009 15.4603C13.9088 15.4603 15.4618 13.9082 15.4618 11.9995C15.4618 10.0908 13.9096 8.53857 12.0009 8.53857C10.0922 8.53857 8.54004 10.0908 8.54004 11.9995C8.54004 13.9082 10.0922 15.4603 12.0009 15.4603ZM12.0009 9.85196C13.1857 9.85196 14.1493 10.8156 14.1493 12.0003C14.1493 13.185 13.1857 14.1486 12.0009 14.1486C10.8162 14.1486 9.85259 13.185 9.85259 12.0003C9.85259 10.8156 10.8162 9.85196 12.0009 9.85196Z" fill="white"/>
<path d="M15.7821 9.09691C16.2958 9.09691 16.7146 8.67902 16.7146 8.16442C16.7146 7.64983 16.2967 7.23193 15.7821 7.23193C15.2675 7.23193 14.8496 7.64983 14.8496 8.16442C14.8496 8.67902 15.2675 9.09691 15.7821 9.09691Z" fill="white"/>
</svg>
