<svg width="24" height="24" viewBox="0 0 24 24" fill="none" xmlns="http://www.w3.org/2000/svg">
<path d="M23.9983 12.0004C23.9983 18.0612 19.5059 23.0717 13.6698 23.8848C13.1242 23.9605 12.5659 24 11.9992 24C11.345 24 10.7026 23.9479 10.0771 23.847C4.36379 22.9271 0 17.9729 0 12.0004C0 5.37294 5.37276 0 12 0C18.6272 0 24 5.37294 24 12.0004H23.9983Z" fill="#263655"/>
<path fill-rule="evenodd" clip-rule="evenodd" d="M17.8054 10.3333H17.0579C16.6002 10.3333 16.1986 9.94574 16.1671 9.49997C16.1671 7.12173 14.2496 5.33358 11.8547 5.33358L9.66946 5.3335C7.2761 5.3335 5.33522 7.26092 5.3335 9.63892V14.3629C5.3335 16.7411 7.2761 18.6668 9.66946 18.6668H14.336C16.7309 18.6668 18.6667 16.741 18.6667 14.3629L18.6668 11.3115C18.6668 10.8363 18.2835 10.3337 17.8049 10.3337L17.8054 10.3332L17.8054 10.3333ZM9.50006 8.66683H12.0002C12.4584 8.66683 12.8336 9.04204 12.8336 9.50013C12.8336 9.95826 12.4583 10.3335 12.0002 10.3335L9.50006 10.3333C9.0419 10.3333 8.6667 9.95806 8.6667 9.49997C8.6667 9.0416 9.04194 8.66659 9.50006 8.66659V8.66683ZM14.5004 15.3328H9.50006C9.0419 15.3328 8.6667 14.9578 8.6667 14.4995C8.6667 14.0414 9.04194 13.6661 9.50006 13.6661L14.5004 13.6666C14.9586 13.6666 15.3338 14.0416 15.3338 14.4999C15.3338 14.958 14.9585 15.3333 14.5004 15.3333V15.3328Z" fill="white"/>
</svg>
